# xmcd
#
# Track frame offsets:
#	150
#	17792
#	40564
#	57203
#	75094
#	88920
#	107081
#	125928
#	137298
#	152392
#	173120
#	190217
#	204469
#	216218
#	228244
#	243546
#
# Disc length: 3450 seconds
#
# Revision: 2
# Processed by: cddbd v1.5.2PL0 Copyright (c) Steve Scherf et al.
# Submitted via: audiograbber 1.83.01
#
DISCID=ca0d7810
DTITLE=Various Artist - CDXMAS 1020
DYEAR=2006
DGENRE=Country
TTITLE0=Wynonna - Ave Maria
TTITLE1=Brad Paisley - Born On Christmas Day
TTITLE2=Keith Anderson - Please Come Home For Christmas
TTITLE3=Phil Vassar - Let's Make A Little Christmas Tonight
TTITLE4=Josh Turner - Me And God
TTITLE5=Josh Gracin - O Holy Night
TTITLE6=Josh Gracin - Please Come Home For Christmas
TTITLE7=Rhonda Vincent - Rockin' Around The Christmas Tree
TTITLE8=Wynonna - Santa Claus Is Coming To Town [Radio Edit]
TTITLE9=Josh Gracin - The Virgin's Lullaby (w - Kassidy Osborn)
TTITLE10=Steve Azar - Catfish Christmas
TTITLE11=The Overall Brothers - Christmas Time In Texas
TTITLE12=Tommy Cash - Christmas Train (w - The Tennessee 3 and Doc Wooten)
TTITLE13=Dan Tyler - Happy Christmas
TTITLE14=Michael Chain - Santa Claus Is Coming To Iraq
TTITLE15=Sonny Burgess - The Night When He Came
EXTD=
EXTT0=
EXTT1=
EXTT2=
EXTT3=
EXTT4=
EXTT5=
EXTT6=
EXTT7=
EXTT8=
EXTT9=
EXTT10=
EXTT11=
EXTT12=
EXTT13=
EXTT14=
EXTT15=
PLAYORDER=
